<mxfile host="65bd71144e">
    <diagram name="第 1 页" id="j3caezr_NOUJkOHHyfsa">
        <mxGraphModel dx="4810" dy="4440" grid="0" gridSize="10" guides="1" tooltips="1" connect="1" arrows="1" fold="1" page="0" pageScale="1" pageWidth="827" pageHeight="1169" math="0" shadow="0">
            <root>
                <mxCell id="0"/>
                <mxCell id="1" parent="0"/>
                <mxCell id="FFX_t_lz-Yf2fpsXqPLJ-7" value="" style="rounded=0;whiteSpace=wrap;html=1;strokeWidth=4;" parent="1" vertex="1">
                    <mxGeometry x="-990" y="-1392" width="3774" height="1966" as="geometry"/>
                </mxCell>
                <mxCell id="FFX_t_lz-Yf2fpsXqPLJ-6" style="rounded=0;orthogonalLoop=1;jettySize=auto;html=1;entryX=0;entryY=0.5;entryDx=0;entryDy=0;jumpSize=8;strokeWidth=10;startArrow=classic;startFill=1;" parent="1" source="FFX_t_lz-Yf2fpsXqPLJ-1" target="2" edge="1">
                    <mxGeometry relative="1" as="geometry"/>
                </mxCell>
                <mxCell id="FFX_t_lz-Yf2fpsXqPLJ-19" value="&lt;span style=&quot;font-size: 55px;&quot;&gt;Check Repo is Modified&lt;/span&gt;" style="edgeLabel;html=1;align=center;verticalAlign=middle;resizable=0;points=[];" parent="FFX_t_lz-Yf2fpsXqPLJ-6" vertex="1" connectable="0">
                    <mxGeometry x="0.0714" y="-7" relative="1" as="geometry">
                        <mxPoint x="-77" y="-4" as="offset"/>
                    </mxGeometry>
                </mxCell>
                <mxCell id="5" style="edgeStyle=none;html=1;exitX=0.5;exitY=1;exitDx=0;exitDy=0;entryX=0;entryY=0.5;entryDx=0;entryDy=0;strokeWidth=10;" edge="1" parent="1" source="FFX_t_lz-Yf2fpsXqPLJ-1" target="FFX_t_lz-Yf2fpsXqPLJ-4">
                    <mxGeometry relative="1" as="geometry"/>
                </mxCell>
                <mxCell id="6" value="&lt;font style=&quot;font-size: 54px;&quot;&gt;Pull Images&lt;/font&gt;" style="edgeLabel;html=1;align=center;verticalAlign=middle;resizable=0;points=[];" vertex="1" connectable="0" parent="5">
                    <mxGeometry x="-0.0707" y="1" relative="1" as="geometry">
                        <mxPoint x="-1" y="30" as="offset"/>
                    </mxGeometry>
                </mxCell>
                <mxCell id="FFX_t_lz-Yf2fpsXqPLJ-1" value="ArgoCD" style="shape=image;verticalLabelPosition=bottom;labelBackgroundColor=default;verticalAlign=top;aspect=fixed;imageAspect=0;image=https://argo-cd.readthedocs.io/en/stable/assets/logo.png;fontSize=55;" parent="1" vertex="1">
                    <mxGeometry x="-611.0033333333331" y="-1258.003333333333" width="268" height="268" as="geometry"/>
                </mxCell>
                <mxCell id="FFX_t_lz-Yf2fpsXqPLJ-5" style="edgeStyle=orthogonalEdgeStyle;rounded=0;orthogonalLoop=1;jettySize=auto;html=1;exitX=0.5;exitY=1;exitDx=0;exitDy=0;entryX=0.5;entryY=0;entryDx=0;entryDy=0;fontSize=25;strokeWidth=10;" parent="1" source="FFX_t_lz-Yf2fpsXqPLJ-2" target="FFX_t_lz-Yf2fpsXqPLJ-4" edge="1">
                    <mxGeometry relative="1" as="geometry"/>
                </mxCell>
                <mxCell id="FFX_t_lz-Yf2fpsXqPLJ-18" value="&lt;font style=&quot;font-size: 55px;&quot;&gt;Check if there is a new Image&lt;/font&gt;" style="edgeLabel;html=1;align=center;verticalAlign=middle;resizable=0;points=[];" parent="FFX_t_lz-Yf2fpsXqPLJ-5" vertex="1" connectable="0">
                    <mxGeometry x="0.0917" y="14" relative="1" as="geometry">
                        <mxPoint x="56" y="2" as="offset"/>
                    </mxGeometry>
                </mxCell>
                <mxCell id="3" style="html=1;entryX=0;entryY=0.5;entryDx=0;entryDy=0;strokeWidth=10;" edge="1" parent="1" source="FFX_t_lz-Yf2fpsXqPLJ-2" target="2">
                    <mxGeometry relative="1" as="geometry"/>
                </mxCell>
                <mxCell id="4" value="&lt;span style=&quot;font-size: 50px;&quot;&gt;Modify values.yaml to new image tag&lt;/span&gt;" style="edgeLabel;html=1;align=center;verticalAlign=middle;resizable=0;points=[];" vertex="1" connectable="0" parent="3">
                    <mxGeometry x="-0.0097" y="8" relative="1" as="geometry">
                        <mxPoint x="-56" y="40" as="offset"/>
                    </mxGeometry>
                </mxCell>
                <mxCell id="FFX_t_lz-Yf2fpsXqPLJ-2" value="AargoCD Image Updater" style="shape=image;verticalLabelPosition=bottom;labelBackgroundColor=default;verticalAlign=top;aspect=fixed;imageAspect=0;image=data:image/png,iVBORw0KGgoAAAANSUhEUgAAACAAAAAgCAMAAABEpIrGAAAAYFBMVEVHcEw+PDwvLS0tKysiHx8kISEbGBg+PDwbGRklIiIjISErKCgxLy9hYWHQz8////+NjIy7urqjoqLw8PA5ODg9OztBQEBBPz9KSUlWVlZRUFBXV1dZWVlVVVVaWVlfXl4ATt3eAAAAIHRSTlMAHD6RxePzDv98/////v////////+6/9v/iP//0+s8uZK+6VoAAAFiSURBVHgBdZMHgoMwDARFC6Y3YdxC/v/Lk8WBUsd9d+kYhCTN8uJ2K/IsTeCTMivURZGV73ZVK1VfhaheIznJb+QgpIXoQpHCCflNfaDUU+K8ft6c1G3XtfW1zEuIVOKrfhh61VxUfAJZq3EgxivRNvEUWXuhphiYlCgZQJLLsulioGtEyRNIz6OVokeZl2WmgRYsYptCRj1iq+ju5i5a9CRzPyyKVIzXWOOIqBY6+dJj0+iep4plXGFDhgPEOB7jUiOzgUampoAgAQ364DPAMgW22GvdvAcazWyw8vgzsEKmjabavgdaEsnIIDWENp8Bw6SQbGQbg1O/PNn9hOxvCYA1jEZ088Lu7BC1YWz83MaZ/6o9fc7J67hwLJVAWCfocdROsBApgxPoMCGUcHD33jsqEXc25+9wslPidLnj8b6DEPwHAZ4pLYsdNx7sx+60IVpdF1sg+5Nkt49A5sPuiah/6MU2vorwU8MAAAAASUVORK5CYII=;fontSize=55;" parent="1" vertex="1">
                    <mxGeometry x="169" y="-800" width="242" height="242" as="geometry"/>
                </mxCell>
                <mxCell id="FFX_t_lz-Yf2fpsXqPLJ-4" value="GitHub Packages" style="shape=image;verticalLabelPosition=bottom;labelBackgroundColor=default;verticalAlign=top;aspect=fixed;imageAspect=0;image=https://github.githubassets.com/assets/GitHub-Mark-ea2971cee799.png;fontSize=55;" parent="1" vertex="1">
                    <mxGeometry x="121" y="-52" width="338" height="338" as="geometry"/>
                </mxCell>
                <mxCell id="FFX_t_lz-Yf2fpsXqPLJ-11" style="edgeStyle=orthogonalEdgeStyle;rounded=0;orthogonalLoop=1;jettySize=auto;html=1;entryX=1;entryY=0.5;entryDx=0;entryDy=0;fontSize=14;strokeWidth=10;" parent="1" source="FFX_t_lz-Yf2fpsXqPLJ-9" target="FFX_t_lz-Yf2fpsXqPLJ-10" edge="1">
                    <mxGeometry relative="1" as="geometry"/>
                </mxCell>
                <mxCell id="FFX_t_lz-Yf2fpsXqPLJ-22" value="&lt;font style=&quot;font-size: 55px;&quot;&gt;Push Code&lt;/font&gt;" style="edgeLabel;html=1;align=center;verticalAlign=middle;resizable=0;points=[];" parent="FFX_t_lz-Yf2fpsXqPLJ-11" vertex="1" connectable="0">
                    <mxGeometry x="-0.0768" y="18" relative="1" as="geometry">
                        <mxPoint x="-1" as="offset"/>
                    </mxGeometry>
                </mxCell>
                <mxCell id="FFX_t_lz-Yf2fpsXqPLJ-13" style="edgeStyle=orthogonalEdgeStyle;rounded=0;orthogonalLoop=1;jettySize=auto;html=1;entryX=0.5;entryY=0;entryDx=0;entryDy=0;strokeWidth=10;" parent="1" source="FFX_t_lz-Yf2fpsXqPLJ-10" target="FFX_t_lz-Yf2fpsXqPLJ-12" edge="1">
                    <mxGeometry relative="1" as="geometry"/>
                </mxCell>
                <mxCell id="FFX_t_lz-Yf2fpsXqPLJ-17" value="&lt;font style=&quot;font-size: 50px;&quot;&gt;Push to develop branch&lt;/font&gt;" style="edgeLabel;html=1;align=center;verticalAlign=middle;resizable=0;points=[];" parent="FFX_t_lz-Yf2fpsXqPLJ-13" vertex="1" connectable="0">
                    <mxGeometry x="-0.004" y="12" relative="1" as="geometry">
                        <mxPoint x="2" y="2" as="offset"/>
                    </mxGeometry>
                </mxCell>
                <mxCell id="FFX_t_lz-Yf2fpsXqPLJ-10" value="Main GitHub Repository" style="shape=image;verticalLabelPosition=bottom;labelBackgroundColor=default;verticalAlign=top;aspect=fixed;imageAspect=0;image=https://github.githubassets.com/assets/GitHub-Mark-ea2971cee799.png;fontSize=55;" parent="1" vertex="1">
                    <mxGeometry x="1408" y="-849" width="302" height="302" as="geometry"/>
                </mxCell>
                <mxCell id="FFX_t_lz-Yf2fpsXqPLJ-14" style="edgeStyle=orthogonalEdgeStyle;rounded=0;orthogonalLoop=1;jettySize=auto;html=1;entryX=1;entryY=0.5;entryDx=0;entryDy=0;strokeWidth=10;" parent="1" source="FFX_t_lz-Yf2fpsXqPLJ-12" target="FFX_t_lz-Yf2fpsXqPLJ-4" edge="1">
                    <mxGeometry relative="1" as="geometry"/>
                </mxCell>
                <mxCell id="FFX_t_lz-Yf2fpsXqPLJ-15" value="&lt;span style=&quot;font-size: 55px;&quot;&gt;Push Image&lt;/span&gt;" style="edgeLabel;html=1;align=center;verticalAlign=middle;resizable=0;points=[];" parent="FFX_t_lz-Yf2fpsXqPLJ-14" vertex="1" connectable="0">
                    <mxGeometry x="0.0956" y="3" relative="1" as="geometry">
                        <mxPoint x="56" y="-3" as="offset"/>
                    </mxGeometry>
                </mxCell>
                <mxCell id="FFX_t_lz-Yf2fpsXqPLJ-12" value="GitHub Actions" style="shape=image;verticalLabelPosition=bottom;labelBackgroundColor=default;verticalAlign=top;aspect=fixed;imageAspect=0;image=https://encrypted-tbn0.gstatic.com/images?q=tbn:ANd9GcTVKKLthRYd2YI2ko29ZYzwpZV7fnpu3G2N8kBlcb0Xw9ALEbD7EZo_OlE3F_JeyyyvalA&amp;usqp=CAU;fontSize=55;" parent="1" vertex="1">
                    <mxGeometry x="1211" y="-55" width="692.09" height="356" as="geometry"/>
                </mxCell>
                <mxCell id="FFX_t_lz-Yf2fpsXqPLJ-21" value="" style="group" parent="1" vertex="1" connectable="0">
                    <mxGeometry x="2378" y="-857" width="255" height="382" as="geometry"/>
                </mxCell>
                <mxCell id="FFX_t_lz-Yf2fpsXqPLJ-9" value="" style="shape=actor;whiteSpace=wrap;html=1;fontSize=24;strokeWidth=11;align=center;" parent="FFX_t_lz-Yf2fpsXqPLJ-21" vertex="1">
                    <mxGeometry width="240" height="304" as="geometry"/>
                </mxCell>
                <mxCell id="FFX_t_lz-Yf2fpsXqPLJ-20" value="&lt;font style=&quot;font-size: 55px;&quot;&gt;Developer&lt;/font&gt;" style="text;html=1;align=center;verticalAlign=middle;resizable=0;points=[];autosize=1;strokeColor=none;fillColor=none;" parent="FFX_t_lz-Yf2fpsXqPLJ-21" vertex="1">
                    <mxGeometry x="-14" y="304" width="269" height="78" as="geometry"/>
                </mxCell>
                <mxCell id="2" value="K8s GitHub Repository" style="shape=image;verticalLabelPosition=bottom;labelBackgroundColor=default;verticalAlign=top;aspect=fixed;imageAspect=0;image=https://github.githubassets.com/assets/GitHub-Mark-ea2971cee799.png;fontSize=55;" vertex="1" parent="1">
                    <mxGeometry x="1406.05" y="-1275" width="302" height="302" as="geometry"/>
                </mxCell>
            </root>
        </mxGraphModel>
    </diagram>
</mxfile>